<svg width="621" height="54" viewBox="0 0 621 54" fill="none" xmlns="http://www.w3.org/2000/svg">
<path d="M50.2959 2.35352L50.1967 2.8436L50.2 2.84424L50.2959 2.35352ZM61.8223 5.5332H62.3223V5.18586L61.9968 5.06464L61.8223 5.5332ZM61.8223 17.6738L61.5775 18.1098L62.3223 18.5279V17.6738H61.8223ZM57.1611 15.4336L56.9665 15.8942L56.9688 15.8951L57.1611 15.4336ZM19.2217 16.915L19.5629 17.2806L19.5671 17.2765L19.2217 16.915ZM15.3555 23.708L15.8458 23.8061L15.3555 23.708ZM15.2832 30.4287L14.7899 30.5109L14.7918 30.5209L15.2832 30.4287ZM16.4395 33.8975L15.9885 34.1136L15.9922 34.1211L16.4395 33.8975ZM22.7627 40.04L22.5364 40.4859L22.5391 40.4873L22.7627 40.04ZM28.6523 42.0273L28.5444 42.5156L28.5493 42.5166L28.6523 42.0273ZM44.1895 42.208L44.1053 41.7151L44.1033 41.7155L44.1895 42.208ZM46.9355 41.5938L46.8017 41.112L46.7982 41.113L46.9355 41.5938ZM49.6094 40.835L49.7484 41.3152L50.1094 41.2108V40.835H49.6094ZM49.6094 34.8369H50.1094V34.3369H49.6094V34.8369ZM34.5781 34.8369H34.0781V35.3369H34.5781V34.8369ZM34.5781 23.9609V23.4609H34.0781V23.9609H34.5781ZM63.0146 23.9609H63.5146V23.4609H63.0146V23.9609ZM63.0146 49.3262L63.1747 49.7999L63.5146 49.685V49.3262H63.0146ZM57.0166 50.9883L57.1239 51.4766L57.1279 51.4757L57.0166 50.9883ZM50.1875 52.2168L50.1168 51.7218L50.1111 51.7227L50.1875 52.2168ZM18.7158 50.6992L18.5485 51.1704L18.5538 51.1722L18.7158 50.6992ZM11.6338 47.2305L11.3586 47.648L11.3608 47.6494L11.6338 47.2305ZM6.17773 42.2441L5.78251 42.5504L5.78492 42.5535L6.17773 42.2441ZM2.67285 35.6318L2.19757 35.7872L2.19944 35.7927L2.67285 35.6318ZM6.3584 12.1816L5.97033 11.8663L5.96796 11.8693L6.3584 12.1816ZM11.959 7.19531L11.6902 6.77367L11.6881 6.77503L11.959 7.19531ZM19.1494 3.7627L19.3115 4.23571L19.314 4.23483L19.1494 3.7627ZM27.5322 1.73926L27.4604 1.24444L27.4598 1.24453L27.5322 1.73926ZM36.7461 1.58887C41.5834 1.58887 46.0663 2.00796 50.1968 2.84359L50.395 1.86344C46.1908 1.01288 41.6406 0.588867 36.7461 0.588867V1.58887ZM50.2 2.84424C54.3684 3.65875 58.1839 4.71176 61.6478 6.00176L61.9968 5.06464C58.475 3.75309 54.6062 2.6863 50.3918 1.8628L50.2 2.84424ZM61.3223 5.5332V17.6738H62.3223V5.5332H61.3223ZM62.067 17.2378C60.6741 16.4559 59.1025 15.7008 57.3534 14.9721L56.9688 15.8951C58.6885 16.6117 60.2243 17.3501 61.5775 18.1098L62.067 17.2378ZM57.3557 14.973C55.6227 14.2407 53.7347 13.5954 51.6926 13.0363L51.4285 14.0008C53.4333 14.5497 55.279 15.1811 56.9665 15.8942L57.3557 14.973ZM51.6926 13.0363C49.6474 12.4763 47.4593 12.0267 45.1288 11.6869L44.9845 12.6764C47.279 13.011 49.4268 13.4527 51.4285 14.0008L51.6926 13.0363ZM45.1288 11.6869C42.7903 11.3458 40.3332 11.1758 37.7578 11.1758V12.1758C40.2892 12.1758 42.698 12.343 44.9845 12.6764L45.1288 11.6869ZM37.7578 11.1758C34.5557 11.1758 31.7523 11.4061 29.3521 11.8714L29.5424 12.8532C31.8636 12.4031 34.6005 12.1758 37.7578 12.1758V11.1758ZM29.3521 11.8714C26.9634 12.3346 24.9001 12.959 23.1691 13.7503L23.5848 14.6598C25.2262 13.9095 27.2098 13.3054 29.5424 12.8532L29.3521 11.8714ZM23.1691 13.7503C21.4437 14.5391 20.0088 15.4713 18.8763 16.5535L19.5671 17.2765C20.6025 16.2871 21.9378 15.4127 23.5848 14.6598L23.1691 13.7503ZM18.8805 16.5495C17.762 17.5934 16.8717 18.7195 16.2166 19.9289L17.0959 20.4051C17.6934 19.302 18.5134 18.2601 19.5628 17.2806L18.8805 16.5495ZM16.2166 19.9289C15.5682 21.1259 15.1165 22.3532 14.8652 23.6099L15.8458 23.8061C16.0762 22.6539 16.4917 21.5206 17.0959 20.4051L16.2166 19.9289ZM14.8652 23.6099C14.6184 24.844 14.4941 26.0452 14.4941 27.2129H15.4941C15.4941 26.1163 15.6108 24.9809 15.8458 23.8061L14.8652 23.6099ZM14.4941 27.2129C14.4941 28.2326 14.5936 29.3324 14.79 30.5109L15.7764 30.3465C15.5874 29.2126 15.4941 28.1685 15.4941 27.2129H14.4941ZM14.7918 30.5209C15.0173 31.7237 15.4173 32.9214 15.9885 34.1135L16.8904 33.6814C16.3535 32.561 15.9827 31.4463 15.7746 30.3366L14.7918 30.5209ZM15.9922 34.1211C16.5954 35.3274 17.4209 36.4757 18.4625 37.5669L19.1859 36.8764C18.2041 35.8479 17.4398 34.78 16.8867 33.6739L15.9922 34.1211ZM18.4625 37.5669C19.5213 38.6761 20.8834 39.6471 22.5364 40.4859L22.989 39.5942C21.4141 38.795 20.1505 37.887 19.1859 36.8764L18.4625 37.5669ZM22.5391 40.4873C24.2224 41.3289 26.2265 42.0032 28.5444 42.5156L28.7603 41.5391C26.5014 41.0398 24.579 40.3892 22.9863 39.5928L22.5391 40.4873ZM28.5493 42.5166C30.881 43.0075 33.6393 43.25 36.8184 43.25V42.25C33.6862 42.25 31.0005 42.0107 28.7553 41.5381L28.5493 42.5166ZM36.8184 43.25C38.4175 43.25 39.8168 43.2016 41.0143 43.1038L40.933 42.1071C39.7698 42.2021 38.3989 42.25 36.8184 42.25V43.25ZM41.0143 43.1038C42.2069 43.0065 43.2943 42.8723 44.2756 42.7005L44.1033 41.7155C43.1575 41.881 42.1011 42.0118 40.933 42.1071L41.0143 43.1038ZM44.2736 42.7009C45.2767 42.5296 46.21 42.321 47.0729 42.0745L46.7982 41.113C45.9748 41.3482 45.0775 41.5492 44.1053 41.7151L44.2736 42.7009ZM47.0694 42.0755C47.9384 41.8341 48.8314 41.5807 49.7484 41.3152L49.4703 40.3547C48.5566 40.6192 47.6671 40.8716 46.8017 41.112L47.0694 42.0755ZM50.1094 40.835V34.8369H49.1094V40.835H50.1094ZM49.6094 34.3369H34.5781V35.3369H49.6094V34.3369ZM35.0781 34.8369V23.9609H34.0781V34.8369H35.0781ZM34.5781 24.4609H63.0146V23.4609H34.5781V24.4609ZM62.5146 23.9609V49.3262H63.5146V23.9609H62.5146ZM62.8546 48.8525C61.091 49.4483 59.1083 49.998 56.9053 50.5008L57.1279 51.4757C59.3572 50.9669 61.3732 50.4085 63.1747 49.7999L62.8546 48.8525ZM56.9093 50.4999C54.7301 50.9789 52.4659 51.3862 50.1168 51.7218L50.2582 52.7118C52.6304 52.3729 54.919 51.9612 57.1239 51.4766L56.9093 50.4999ZM50.1111 51.7227C47.7864 52.0822 45.4497 52.3578 43.1009 52.5495L43.1823 53.5462C45.5549 53.3525 47.9154 53.0741 50.2639 52.7109L50.1111 51.7227ZM43.1009 52.5495C40.7521 52.7413 38.5375 52.8369 36.457 52.8369V53.8369C38.5679 53.8369 40.8098 53.7399 43.1823 53.5462L43.1009 52.5495ZM36.457 52.8369C33.2273 52.8369 30.1319 52.6216 27.1705 52.1917L27.0268 53.1813C30.0393 53.6186 33.1829 53.8369 36.457 53.8369V52.8369ZM27.1705 52.1917C24.2112 51.7621 21.4474 51.1065 18.8779 50.2262L18.5538 51.1722C21.1873 52.0745 24.0121 52.7437 27.0268 53.1813L27.1705 52.1917ZM18.8832 50.228C16.3403 49.325 14.0154 48.1858 11.9068 46.8116L11.3608 47.6494C13.5399 49.0695 15.9364 50.2427 18.5485 51.1704L18.8832 50.228ZM11.9089 46.813C9.83233 45.4443 8.05381 43.8183 6.57055 41.9348L5.78492 42.5535C7.33682 44.5242 9.19566 46.2224 11.3586 47.6479L11.9089 46.813ZM6.57294 41.9379C5.11585 40.0577 3.97287 37.9035 3.14627 35.471L2.19944 35.7927C3.05903 38.3224 4.25264 40.5764 5.78253 42.5504L6.57294 41.9379ZM3.1481 35.4765C2.34812 33.0295 1.94434 30.2767 1.94434 27.2129H0.944336C0.944336 30.3639 1.35956 33.2238 2.1976 35.7872L3.1481 35.4765ZM1.94434 27.2129C1.94434 24.1763 2.37133 21.4384 3.21761 18.9936L2.27262 18.6665C1.38453 21.2321 0.944336 24.0828 0.944336 27.2129H1.94434ZM3.21761 18.9936C4.06752 16.5383 5.24537 14.3733 6.74883 12.494L5.96796 11.8693C4.38809 13.8441 3.15709 16.1114 2.27262 18.6665L3.21761 18.9936ZM6.74646 12.4969C8.27765 10.6124 10.1045 8.98526 12.2298 7.6156L11.6881 6.77503C9.47753 8.19964 7.57066 9.89673 5.97034 11.8663L6.74646 12.4969ZM12.2277 7.61695C14.3845 6.2423 16.7452 5.11489 19.3115 4.23571L18.9874 3.28968C16.3505 4.19306 13.9176 5.35405 11.6902 6.77367L12.2277 7.61695ZM19.314 4.23483C21.9075 3.33067 24.6707 2.66334 27.6046 2.23399L27.4598 1.24453C24.4679 1.68236 21.6426 2.364 18.9848 3.29056L19.314 4.23483ZM27.6041 2.23407C30.5662 1.80408 33.6134 1.58887 36.7461 1.58887V0.588867C33.5675 0.588867 30.4722 0.807245 27.4604 1.24444L27.6041 2.23407ZM137.883 38.5225L138.334 38.7394L138.334 38.7381L137.883 38.5225ZM120.54 51.6748L120.669 52.1578L120.671 52.1573L120.54 51.6748ZM92.5005 51.6748L92.3694 52.1573L92.3727 52.1582L92.5005 51.6748ZM75.0483 38.5225L74.5985 38.7408L74.5991 38.7421L75.0483 38.5225ZM75.0483 15.9395L75.4975 16.1591L75.4981 16.1578L75.0483 15.9395ZM92.5005 2.78711L92.6289 3.27032L92.6309 3.26981L92.5005 2.78711ZM120.54 2.78711L120.408 3.26944L120.411 3.27032L120.54 2.78711ZM137.883 15.9395L137.432 16.1551L137.433 16.1564L137.883 15.9395ZM125.779 21.6846L125.301 21.8334L125.304 21.8408L125.779 21.6846ZM122.635 16.6982L122.285 17.0547L122.287 17.0575L122.635 16.6982ZM99.438 12.3984L99.536 12.8888L99.5416 12.8876L99.438 12.3984ZM90.3686 16.7705L90.7179 17.1283L90.7222 17.1241L90.3686 16.7705ZM87.9477 19.9863L88.3892 20.2211L88.3912 20.2173L87.9477 19.9863ZM86.6469 23.5635L86.1577 23.46L86.1563 23.4673L86.6469 23.5635ZM86.6469 30.9346L86.1559 31.029L86.1578 31.038L86.6469 30.9346ZM87.9477 34.5479L87.5043 34.7788L87.5063 34.7827L87.9477 34.5479ZM94.1264 40.3291L93.9028 40.7764L93.9087 40.7792L94.1264 40.3291ZM99.438 42.0635L99.3344 42.5527L99.3399 42.5538L99.438 42.0635ZM122.635 37.7275L122.287 37.3683L122.285 37.3711L122.635 37.7275ZM125.779 32.7773L125.303 32.6229L125.302 32.6268L125.779 32.7773ZM139.732 27.2129C139.732 31.4149 138.961 35.1089 137.432 38.3069L138.334 38.7381C139.937 35.384 140.732 31.5383 140.732 27.2129H139.732ZM137.433 38.3056C135.902 41.4847 133.714 44.1443 130.862 46.2889L131.463 47.0881C134.441 44.8485 136.733 42.0641 138.334 38.7394L137.433 38.3056ZM130.862 46.2889C128.006 48.4365 124.526 50.0738 120.408 51.1923L120.671 52.1573C124.888 51.0115 128.489 49.3246 131.463 47.0881L130.862 46.2889ZM120.41 51.1918C116.317 52.2865 111.7 52.8369 106.556 52.8369V53.8369C111.77 53.8369 116.476 53.2792 120.669 52.1578L120.41 51.1918ZM106.556 52.8369C101.412 52.8369 96.7708 52.2866 92.6283 51.1914L92.3727 52.1582C96.6129 53.2792 101.342 53.8369 106.556 53.8369V52.8369ZM92.6316 51.1923C88.5142 50.0737 85.0206 48.4362 82.1402 46.2877L81.5423 47.0893C84.5396 49.3249 88.152 51.0116 92.3694 52.1573L92.6316 51.1923ZM82.1402 46.2877C79.2644 44.1426 77.0519 41.4824 75.4975 38.3029L74.5991 38.7421C76.2244 42.0665 78.5406 44.8503 81.5423 47.0893L82.1402 46.2877ZM75.4981 38.3042C73.9465 35.1068 73.1636 31.4138 73.1636 27.2129H72.1636C72.1636 31.5393 72.9704 35.386 74.5985 38.7408L75.4981 38.3042ZM73.1636 27.2129C73.1636 23.0119 73.9465 19.3315 75.4975 16.1591L74.5991 15.7198C72.9704 19.0513 72.1636 22.8866 72.1636 27.2129H73.1636ZM75.4981 16.1578C77.0528 12.9543 79.2652 10.2826 82.1402 8.13809L81.5423 7.33652C78.5398 9.57611 76.2235 12.3726 74.5985 15.7212L75.4981 16.1578ZM82.1402 8.13809C85.0198 5.99019 88.5125 4.36486 92.6289 3.27032L92.372 2.3039C88.1538 3.42551 84.5403 5.1003 81.5423 7.33652L82.1402 8.13809ZM92.6309 3.26981C96.7725 2.15109 101.413 1.58887 106.556 1.58887V0.588867C101.341 0.588867 96.6112 1.15881 92.3701 2.30441L92.6309 3.26981ZM106.556 1.58887C111.699 1.58887 116.315 2.15112 120.408 3.26943L120.671 2.30479C116.477 1.15878 111.771 0.588867 106.556 0.588867V1.58887ZM120.411 3.27032C124.527 4.36482 128.007 5.9899 130.862 8.13691L131.463 7.3377C128.488 5.10059 124.886 3.42555 120.668 2.3039L120.411 3.27032ZM130.862 8.13691C133.713 10.2809 135.901 12.9519 137.432 16.1551L138.334 15.7238C136.734 12.3749 134.442 9.57787 131.463 7.3377L130.862 8.13691ZM137.433 16.1564C138.961 19.3294 139.732 23.0108 139.732 27.2129H140.732C140.732 22.8876 139.938 19.0534 138.334 15.7225L137.433 16.1564ZM127.182 27.2129C127.182 25.3029 126.872 23.4075 126.254 21.5283L125.304 21.8408C125.89 23.6231 126.182 25.4132 126.182 27.2129H127.182ZM126.256 21.5358C125.651 19.5942 124.555 17.8614 122.983 16.339L122.287 17.0575C123.75 18.4739 124.75 20.0653 125.301 21.8334L126.256 21.5358ZM122.986 16.3418C121.426 14.8073 119.308 13.5818 116.659 12.6494L116.327 13.5927C118.88 14.4911 120.857 15.6504 122.285 17.0547L122.986 16.3418ZM116.659 12.6494C113.985 11.7088 110.612 11.248 106.556 11.248V12.248C110.546 12.248 113.797 12.7026 116.327 13.5927L116.659 12.6494ZM106.556 11.248C103.833 11.248 101.424 11.4668 99.3344 11.9093L99.5416 12.8876C101.547 12.4629 103.884 12.248 106.556 12.248V11.248ZM99.3399 11.9081C97.2592 12.3243 95.4445 12.9147 93.9028 13.6856L94.35 14.58C95.7953 13.8574 97.5217 13.2916 99.536 12.8887L99.3399 11.9081ZM93.9028 13.6856C92.3691 14.4525 91.0705 15.3615 90.0151 16.417L90.7222 17.1241C91.6902 16.1561 92.8968 15.3067 94.35 14.58L93.9028 13.6856ZM90.0194 16.4127C88.9729 17.4342 88.1329 18.5483 87.5043 19.7554L88.3912 20.2173C88.9669 19.1118 89.7409 18.082 90.7179 17.1283L90.0194 16.4127ZM87.5063 19.7515C86.8821 20.9249 86.4325 22.1615 86.1578 23.46L87.1361 23.667C87.3914 22.4602 87.8089 21.312 88.3892 20.2211L87.5063 19.7515ZM86.1563 23.4673C85.9094 24.7262 85.7856 25.9749 85.7856 27.2129H86.7856C86.7856 26.042 86.9027 24.8578 87.1376 23.6597L86.1563 23.4673ZM85.7856 27.2129C85.7856 28.4743 85.9093 29.7465 86.1559 31.029L87.138 30.8401C86.9028 29.6175 86.7856 28.4085 86.7856 27.2129H85.7856ZM86.1578 31.038C86.4323 32.3358 86.8815 33.5831 87.5043 34.7788L88.3912 34.3169C87.8095 33.2001 87.3915 32.0385 87.1361 30.8311L86.1578 31.038ZM87.5063 34.7827C88.1351 35.9647 88.9745 37.0654 90.0194 38.0853L90.7179 37.3698C89.7393 36.4145 88.9648 35.3953 88.3892 34.313L87.5063 34.7827ZM90.0194 38.0853C91.0741 39.1149 92.3712 40.0105 93.9028 40.7763L94.35 39.8819C92.8947 39.1542 91.6866 38.3154 90.7179 37.3698L90.0194 38.0853ZM93.9087 40.7792C95.4465 41.5233 97.2571 42.1127 99.3344 42.5526L99.5416 41.5743C97.5238 41.147 95.7934 40.5802 94.3442 39.879L93.9087 40.7792ZM99.3399 42.5538C101.427 42.9713 103.834 43.1777 106.556 43.1777V42.1777C103.882 42.1777 101.544 41.9747 99.536 41.5732L99.3399 42.5538ZM106.556 43.1777C110.612 43.1777 113.985 42.7169 116.659 41.7763L116.327 40.833C113.797 41.7232 110.546 42.1777 106.556 42.1777V43.1777ZM116.659 41.7763C119.308 40.844 121.426 39.6185 122.986 38.084L122.285 37.3711C120.857 38.7754 118.88 39.9347 116.327 40.833L116.659 41.7763ZM122.983 38.0867C124.554 36.5655 125.65 34.8456 126.256 32.9279L125.302 32.6268C124.751 34.3706 123.751 35.9508 122.287 37.3683L122.983 38.0867ZM126.254 32.9317C126.872 31.0296 127.182 29.1228 127.182 27.2129H126.182C126.182 29.0126 125.89 30.8154 125.303 32.6229L126.254 32.9317ZM177.307 52H176.807V52.5H177.307V52ZM177.307 2.35352V1.85352H176.807V2.35352H177.307ZM227.568 2.35352H228.068V1.85352H227.568V2.35352ZM227.568 12.9404V13.4404H228.068V12.9404H227.568ZM191.074 12.9404V12.4404H190.574V12.9404H191.074ZM191.074 21.1426H190.574V21.6426H191.074V21.1426ZM225.689 21.1426H226.189V20.6426H225.689V21.1426ZM225.689 31.7295V32.2295H226.189V31.7295H225.689ZM191.074 31.7295V31.2295H190.574V31.7295H191.074ZM191.074 41.4131H190.574V41.9131H191.074V41.4131ZM228.074 41.4131H228.574V40.9131H228.074V41.4131ZM228.074 52V52.5H228.574V52H228.074ZM177.807 52V2.35352H176.807V52H177.807ZM177.307 2.85352H227.568V1.85352H177.307V2.85352ZM227.068 2.35352V12.9404H228.068V2.35352H227.068ZM227.568 12.4404H191.074V13.4404H227.568V12.4404ZM190.574 12.9404V21.1426H191.574V12.9404H190.574ZM191.074 21.6426H225.689V20.6426H191.074V21.6426ZM225.189 21.1426V31.7295H226.189V21.1426H225.189ZM225.689 31.2295H191.074V32.2295H225.689V31.2295ZM190.574 31.7295V41.4131H191.574V31.7295H190.574ZM191.074 41.9131H228.074V40.9131H191.074V41.9131ZM227.574 41.4131V52H228.574V41.4131H227.574ZM228.074 51.5H177.307V52.5H228.074V51.5ZM272.41 26.5264L272.043 26.1868L271.729 26.5263L272.043 26.8659L272.41 26.5264ZM295.969 52V52.5H297.112L296.336 51.6605L295.969 52ZM279.89 52L279.523 52.3403L279.672 52.5H279.89V52ZM264.352 35.2705L264.719 34.9303L264.352 34.5348L263.985 34.9311L264.352 35.2705ZM248.888 52V52.5H249.106L249.255 52.3394L248.888 52ZM232.845 52L232.477 51.6608L231.702 52.5H232.845V52ZM256.367 26.5264L256.734 26.8656L257.048 26.526L256.734 26.1868L256.367 26.5264ZM234.001 2.35352V1.85352H232.857L233.634 2.69309L234.001 2.35352ZM250.08 2.35352L250.448 2.01527L250.3 1.85352H250.08V2.35352ZM264.352 17.8906L263.984 18.2289L264.352 18.6287L264.72 18.2298L264.352 17.8906ZM278.697 2.35352V1.85352H278.478L278.33 2.01434L278.697 2.35352ZM294.776 2.35352L295.143 2.69309L295.92 1.85352H294.776V2.35352ZM272.043 26.8659L295.602 52.3395L296.336 51.6605L272.777 26.1869L272.043 26.8659ZM295.969 51.5H279.89V52.5H295.969V51.5ZM280.256 51.6597L264.719 34.9303L263.986 35.6108L279.523 52.3403L280.256 51.6597ZM263.985 34.9311L248.52 51.6606L249.255 52.3394L264.72 35.6099L263.985 34.9311ZM248.888 51.5H232.845V52.5H248.888V51.5ZM233.212 52.3392L256.734 26.8656L256 26.1872L232.477 51.6608L233.212 52.3392ZM256.734 26.1868L234.368 2.01394L233.634 2.69309L256 26.8659L256.734 26.1868ZM234.001 2.85352H250.08V1.85352H234.001V2.85352ZM249.712 2.69177L263.984 18.2289L264.721 17.5524L250.448 2.01527L249.712 2.69177ZM264.72 18.2298L279.065 2.69269L278.33 2.01434L263.985 17.5514L264.72 18.2298ZM278.697 2.85352H294.776V1.85352H278.697V2.85352ZM294.409 2.01394L272.043 26.1868L272.777 26.8659L295.143 2.69309L294.409 2.01394ZM357.974 26.165L358.446 26.3297L358.447 26.328L357.974 26.165ZM354.469 31.5488L354.811 31.9133L354.812 31.9131L354.469 31.5488ZM316.674 36.3184V35.8184H316.174V36.3184H316.674ZM316.674 52V52.5H317.174V52H316.674ZM303.269 52H302.769V52.5H303.269V52ZM303.269 2.35352V1.85352H302.769V2.35352H303.269ZM348.254 3.61816L348.098 4.09297L348.102 4.09427L348.254 3.61816ZM354.469 7.12305L354.124 7.48477L354.13 7.49003L354.469 7.12305ZM345.002 16.5537L344.534 16.7278L344.537 16.736L344.54 16.7441L345.002 16.5537ZM343.413 14.4941L343.123 14.9019L343.413 14.4941ZM340.486 13.3379L340.378 13.8263L340.388 13.8282L340.486 13.3379ZM316.674 12.9404V12.4404H316.174V12.9404H316.674ZM316.674 25.7314H316.174V26.2314H316.674V25.7314ZM340.486 25.4424L340.565 25.9362L340.574 25.9345L340.486 25.4424ZM343.413 24.3945L343.684 24.8148L343.693 24.8085L343.413 24.3945ZM345.002 22.4434L344.542 22.248L344.537 22.2601L345.002 22.4434ZM358.558 19.2998C358.558 21.732 358.204 23.9646 357.501 26.002L358.447 26.328C359.189 24.174 359.558 21.8298 359.558 19.2998H358.558ZM357.502 26.0004C356.806 27.9952 355.683 29.7216 354.127 31.1846L354.812 31.9131C356.484 30.3409 357.697 28.4781 358.446 26.3297L357.502 26.0004ZM354.127 31.1844C352.601 32.6178 350.597 33.7535 348.098 34.5789L348.411 35.5285C351.018 34.6678 353.158 33.4668 354.811 31.9133L354.127 31.1844ZM348.098 34.5789C345.609 35.4005 342.558 35.8184 338.932 35.8184V36.8184C342.629 36.8184 345.793 36.3931 348.411 35.5285L348.098 34.5789ZM338.932 35.8184H316.674V36.8184H338.932V35.8184ZM316.174 36.3184V52H317.174V36.3184H316.174ZM316.674 51.5H303.269V52.5H316.674V51.5ZM303.769 52V2.35352H302.769V52H303.769ZM303.269 2.85352H338.932V1.85352H303.269V2.85352ZM338.932 2.85352C342.558 2.85352 345.609 3.27137 348.098 4.09295L348.411 3.14338C345.793 2.27876 342.629 1.85352 338.932 1.85352V2.85352ZM348.102 4.09427C350.599 4.89518 352.599 6.02958 354.124 7.48472L354.814 6.76137C353.159 5.18136 351.017 3.97917 348.407 3.14206L348.102 4.09427ZM354.13 7.49003C355.684 8.92807 356.806 10.6412 357.502 12.6354L358.446 12.306C357.696 10.157 356.483 8.305 354.809 6.75607L354.13 7.49003ZM357.502 12.6354C358.204 14.6476 358.558 16.8675 358.558 19.2998H359.558C359.558 16.7699 359.189 14.437 358.446 12.306L357.502 12.6354ZM346.008 19.5166C346.008 18.314 345.833 17.2581 345.465 16.3633L344.54 16.7441C344.846 17.4873 345.008 18.4067 345.008 19.5166H346.008ZM345.471 16.3796C345.122 15.4406 344.529 14.6733 343.702 14.0864L343.123 14.9019C343.79 15.3749 344.256 15.9806 344.534 16.7278L345.471 16.3796ZM343.702 14.0864C342.882 13.5044 341.835 13.0978 340.584 12.8476L340.388 13.8282C341.546 14.0597 342.45 14.4239 343.123 14.9019L343.702 14.0864ZM340.593 12.8496C339.342 12.5743 337.822 12.4404 336.041 12.4404V13.4404C337.778 13.4404 339.221 13.5715 340.378 13.8262L340.593 12.8496ZM336.041 12.4404H316.674V13.4404H336.041V12.4404ZM316.174 12.9404V25.7314H317.174V12.9404H316.174ZM316.674 26.2314H336.041V25.2314H316.674V26.2314ZM336.041 26.2314C337.816 26.2314 339.326 26.1344 340.565 25.9361L340.407 24.9487C339.237 25.1358 337.784 25.2314 336.041 25.2314V26.2314ZM340.574 25.9345C341.821 25.7101 342.865 25.343 343.684 24.8147L343.141 23.9744C342.467 24.4096 341.56 24.7411 340.397 24.9503L340.574 25.9345ZM343.693 24.8085C344.518 24.2494 345.115 23.5207 345.468 22.6266L344.537 22.2601C344.263 22.9559 343.8 23.5279 343.132 23.9806L343.693 24.8085ZM345.463 22.6386C345.833 21.7648 346.008 20.7185 346.008 19.5166H345.008C345.008 20.6273 344.846 21.532 344.542 22.2481L345.463 22.6386ZM368.707 52H368.207V52.5H368.707V52ZM368.707 2.35352V1.85352H368.207V2.35352H368.707ZM382.112 2.35352H382.612V1.85352H382.112V2.35352ZM382.112 41.124H381.612V41.624H382.112V41.124ZM418.353 41.124H418.853V40.624H418.353V41.124ZM418.353 52V52.5H418.853V52H418.353ZM369.207 52V2.35352H368.207V52H369.207ZM368.707 2.85352H382.112V1.85352H368.707V2.85352ZM381.612 2.35352V41.124H382.612V2.35352H381.612ZM382.112 41.624H418.353V40.624H382.112V41.624ZM417.853 41.124V52H418.853V41.124H417.853ZM418.353 51.5H368.707V52.5H418.353V51.5ZM489.536 38.5225L489.987 38.7394L489.988 38.7381L489.536 38.5225ZM472.193 51.6748L472.322 52.1578L472.324 52.1573L472.193 51.6748ZM444.154 51.6748L444.023 52.1573L444.026 52.1582L444.154 51.6748ZM426.702 38.5225L426.252 38.7408L426.252 38.7421L426.702 38.5225ZM426.702 15.9395L427.151 16.1591L427.151 16.1578L426.702 15.9395ZM444.154 2.78711L444.282 3.27032L444.284 3.26981L444.154 2.78711ZM472.193 2.78711L472.061 3.26944L472.064 3.27032L472.193 2.78711ZM489.536 15.9395L489.085 16.1551L489.086 16.1564L489.536 15.9395ZM477.432 21.6846L476.955 21.8334L476.957 21.8408L477.432 21.6846ZM474.288 16.6982L473.938 17.0547L473.941 17.0575L474.288 16.6982ZM451.091 12.3984L451.189 12.8888L451.195 12.8876L451.091 12.3984ZM442.022 16.7705L442.371 17.1283L442.375 17.1241L442.022 16.7705ZM439.601 19.9863L440.042 20.2211L440.044 20.2173L439.601 19.9863ZM438.3 23.5635L437.811 23.46L437.81 23.4673L438.3 23.5635ZM438.3 30.9346L437.809 31.029L437.811 31.038L438.3 30.9346ZM439.601 34.5479L439.157 34.7788L439.16 34.7827L439.601 34.5479ZM445.78 40.3291L445.556 40.7764L445.562 40.7792L445.78 40.3291ZM451.091 42.0635L450.988 42.5527L450.993 42.5538L451.091 42.0635ZM474.288 37.7275L473.941 37.3683L473.938 37.3711L474.288 37.7275ZM477.432 32.7773L476.956 32.6229L476.955 32.6268L477.432 32.7773ZM491.385 27.2129C491.385 31.4149 490.614 35.1089 489.085 38.3069L489.988 38.7381C491.591 35.384 492.385 31.5383 492.385 27.2129H491.385ZM489.086 38.3056C487.555 41.4847 485.367 44.1443 482.515 46.2889L483.116 47.0881C486.094 44.8485 488.386 42.0641 489.987 38.7394L489.086 38.3056ZM482.515 46.2889C479.66 48.4365 476.179 50.0738 472.062 51.1923L472.324 52.1573C476.541 51.0115 480.142 49.3246 483.116 47.0881L482.515 46.2889ZM472.064 51.1918C467.97 52.2865 463.353 52.8369 458.209 52.8369V53.8369C463.423 53.8369 468.129 53.2792 472.322 52.1578L472.064 51.1918ZM458.209 52.8369C453.065 52.8369 448.424 52.2866 444.281 51.1914L444.026 52.1582C448.266 53.2792 452.995 53.8369 458.209 53.8369V52.8369ZM444.285 51.1923C440.167 50.0737 436.674 48.4362 433.793 46.2877L433.196 47.0893C436.193 49.3249 439.805 51.0116 444.023 52.1573L444.285 51.1923ZM433.793 46.2877C430.918 44.1426 428.705 41.4824 427.151 38.3029L426.252 38.7421C427.878 42.0665 430.194 44.8503 433.196 47.0893L433.793 46.2877ZM427.151 38.3042C425.6 35.1068 424.817 31.4138 424.817 27.2129H423.817C423.817 31.5393 424.624 35.386 426.252 38.7408L427.151 38.3042ZM424.817 27.2129C424.817 23.0119 425.6 19.3315 427.151 16.1591L426.252 15.7198C424.624 19.0513 423.817 22.8866 423.817 27.2129H424.817ZM427.151 16.1578C428.706 12.9543 430.918 10.2826 433.793 8.13809L433.196 7.33652C430.193 9.57611 427.877 12.3726 426.252 15.7212L427.151 16.1578ZM433.793 8.13809C436.673 5.99019 440.166 4.36486 444.282 3.27032L444.025 2.3039C439.807 3.42551 436.194 5.1003 433.196 7.33652L433.793 8.13809ZM444.284 3.26981C448.426 2.15109 453.066 1.58887 458.209 1.58887V0.588867C452.994 0.588867 448.264 1.15881 444.023 2.30441L444.284 3.26981ZM458.209 1.58887C463.353 1.58887 467.968 2.15112 472.061 3.26943L472.325 2.30479C468.131 1.15878 463.424 0.588867 458.209 0.588867V1.58887ZM472.064 3.27032C476.181 4.36482 479.66 5.9899 482.515 8.13691L483.116 7.3377C480.142 5.10059 476.54 3.42555 472.321 2.3039L472.064 3.27032ZM482.515 8.13691C485.366 10.2809 487.554 12.9519 489.085 16.1551L489.988 15.7238C488.387 12.3749 486.095 9.57787 483.116 7.3377L482.515 8.13691ZM489.086 16.1564C490.614 19.3294 491.385 23.0108 491.385 27.2129H492.385C492.385 22.8876 491.591 19.0534 489.987 15.7225L489.086 16.1564ZM478.835 27.2129C478.835 25.3029 478.525 23.4075 477.907 21.5283L476.957 21.8408C477.543 23.6231 477.835 25.4132 477.835 27.2129H478.835ZM477.909 21.5358C477.304 19.5942 476.209 17.8614 474.636 16.339L473.941 17.0575C475.403 18.4739 476.404 20.0653 476.955 21.8334L477.909 21.5358ZM474.639 16.3418C473.079 14.8073 470.962 13.5818 468.312 12.6494L467.98 13.5927C470.533 14.4911 472.51 15.6504 473.938 17.0547L474.639 16.3418ZM468.312 12.6494C465.639 11.7088 462.265 11.248 458.209 11.248V12.248C462.199 12.248 465.45 12.7026 467.98 13.5927L468.312 12.6494ZM458.209 11.248C455.486 11.248 453.077 11.4668 450.988 11.9093L451.195 12.8876C453.2 12.4629 455.537 12.248 458.209 12.248V11.248ZM450.993 11.9081C448.912 12.3243 447.098 12.9147 445.556 13.6856L446.003 14.58C447.449 13.8574 449.175 13.2916 451.189 12.8887L450.993 11.9081ZM445.556 13.6856C444.022 14.4525 442.724 15.3615 441.668 16.417L442.375 17.1241C443.343 16.1561 444.55 15.3067 446.003 14.58L445.556 13.6856ZM441.673 16.4127C440.626 17.4342 439.786 18.5483 439.157 19.7554L440.044 20.2173C440.62 19.1118 441.394 18.082 442.371 17.1283L441.673 16.4127ZM439.16 19.7515C438.535 20.9249 438.086 22.1615 437.811 23.46L438.789 23.667C439.045 22.4602 439.462 21.312 440.042 20.2211L439.16 19.7515ZM437.81 23.4673C437.563 24.7262 437.439 25.9749 437.439 27.2129H438.439C438.439 26.042 438.556 24.8578 438.791 23.6597L437.81 23.4673ZM437.439 27.2129C437.439 28.4743 437.563 29.7465 437.809 31.029L438.791 30.8401C438.556 29.6175 438.439 28.4085 438.439 27.2129H437.439ZM437.811 31.038C438.086 32.3358 438.535 33.5831 439.157 34.7788L440.044 34.3169C439.463 33.2001 439.045 32.0385 438.789 30.8311L437.811 31.038ZM439.16 34.7827C439.788 35.9647 440.628 37.0654 441.673 38.0853L442.371 37.3698C441.393 36.4145 440.618 35.3953 440.042 34.313L439.16 34.7827ZM441.673 38.0853C442.727 39.1149 444.024 40.0105 445.556 40.7763L446.003 39.8819C444.548 39.1542 443.34 38.3154 442.371 37.3698L441.673 38.0853ZM445.562 40.7792C447.1 41.5233 448.91 42.1127 450.988 42.5526L451.195 41.5743C449.177 41.147 447.447 40.5802 445.997 39.879L445.562 40.7792ZM450.993 42.5538C453.081 42.9713 455.487 43.1777 458.209 43.1777V42.1777C455.535 42.1777 453.197 41.9747 451.189 41.5732L450.993 42.5538ZM458.209 43.1777C462.265 43.1777 465.639 42.7169 468.312 41.7763L467.98 40.833C465.45 41.7232 462.199 42.1777 458.209 42.1777V43.1777ZM468.312 41.7763C470.962 40.844 473.079 39.6185 474.639 38.084L473.938 37.3711C472.51 38.7754 470.533 39.9347 467.98 40.833L468.312 41.7763ZM474.636 38.0867C476.207 36.5655 477.303 34.8456 477.909 32.9279L476.955 32.6268C476.405 34.3706 475.405 35.9508 473.941 37.3683L474.636 38.0867ZM477.908 32.9317C478.525 31.0296 478.835 29.1228 478.835 27.2129H477.835C477.835 29.0126 477.543 30.8154 476.956 32.6229L477.908 32.9317ZM516.023 52V52.5H516.523V52H516.023ZM502.618 52H502.118V52.5H502.618V52ZM502.618 2.35352V1.85352H502.118V2.35352H502.618ZM545.399 3.47363L545.256 3.9528L545.258 3.95317L545.399 3.47363ZM551.542 6.65332L551.212 7.02926L551.215 7.03173L551.542 6.65332ZM554.974 11.6396L554.504 11.8082L554.506 11.8152L554.974 11.6396ZM555.155 23.5996L554.688 23.4201L554.686 23.4264L555.155 23.5996ZM552.77 27.6465L552.398 27.3133L552.397 27.3138L552.77 27.6465ZM545.11 32.3799L544.947 31.9071L544.264 32.1424L544.725 32.6989L545.11 32.3799ZM561.37 52V52.5H562.434L561.755 51.681L561.37 52ZM545.688 52L545.302 52.3175L545.452 52.5H545.688V52ZM530.657 33.7168L531.043 33.3993L530.893 33.2168H530.657V33.7168ZM516.023 33.7168V33.2168H515.523V33.7168H516.023ZM542.111 15.5781L541.64 15.7463L541.643 15.7537L541.646 15.761L542.111 15.5781ZM540.81 13.9521L540.526 14.3634L540.537 14.3706L540.81 13.9521ZM538.281 13.0127L538.19 13.5043L538.192 13.5046L538.281 13.0127ZM516.023 12.7236V12.2236H515.523V12.7236H516.023ZM516.023 23.3467H515.523V23.8467H516.023V23.3467ZM538.281 23.0576L538.192 22.5657L538.19 22.5661L538.281 23.0576ZM540.81 22.1543L541.084 22.5729L541.095 22.5654L540.81 22.1543ZM542.111 20.4922L541.646 20.3094L541.643 20.3166L541.64 20.324L542.111 20.4922ZM516.023 51.5H502.618V52.5H516.023V51.5ZM503.118 52V2.35352H502.118V52H503.118ZM502.618 2.85352H536.222V1.85352H502.618V2.85352ZM536.222 2.85352C539.803 2.85352 542.811 3.22401 545.256 3.9528L545.542 2.99447C542.977 2.22976 539.866 1.85352 536.222 1.85352V2.85352ZM545.258 3.95317C547.735 4.68469 549.713 5.7149 551.212 7.02925L551.872 6.27739C550.239 4.84565 548.122 3.75606 545.541 2.9941L545.258 3.95317ZM551.215 7.03173C552.741 8.34921 553.835 9.93937 554.504 11.8082L555.445 11.4711C554.717 9.43759 553.523 7.70352 551.869 6.27491L551.215 7.03173ZM554.506 11.8152C555.205 13.678 555.558 15.7732 555.558 18.1074H556.558C556.558 15.6721 556.189 13.4555 555.443 11.4641L554.506 11.8152ZM555.558 18.1074C555.558 20.1565 555.264 21.9239 554.688 23.4201L555.622 23.7791C556.251 22.1438 556.558 20.2498 556.558 18.1074H555.558ZM554.686 23.4264C554.128 24.9391 553.363 26.2324 552.398 27.3133L553.143 27.9796C554.201 26.7962 555.026 25.3916 555.624 23.7728L554.686 23.4264ZM552.397 27.3138C551.446 28.3812 550.331 29.2875 549.05 30.0327L549.553 30.897C550.922 30.1005 552.12 29.1279 553.144 27.9792L552.397 27.3138ZM549.05 30.0327C547.754 30.7869 546.386 31.4117 544.947 31.9071L545.273 32.8527C546.773 32.3363 548.2 31.6845 549.553 30.897L549.05 30.0327ZM544.725 32.6989L560.985 52.319L561.755 51.681L545.495 32.0608L544.725 32.6989ZM561.37 51.5H545.688V52.5H561.37V51.5ZM546.075 51.6825L531.043 33.3993L530.271 34.0343L545.302 52.3175L546.075 51.6825ZM530.657 33.2168H516.023V34.2168H530.657V33.2168ZM515.523 33.7168V52H516.523V33.7168H515.523ZM543.009 18.0352C543.009 17.0285 542.871 16.1437 542.577 15.3953L541.646 15.761C541.882 16.3615 542.009 17.1147 542.009 18.0352H543.009ZM542.582 15.41C542.303 14.6279 541.797 14 541.084 13.5337L540.537 14.3706C541.076 14.7233 541.438 15.1794 541.64 15.7463L542.582 15.41ZM541.095 13.5411C540.391 13.0538 539.474 12.7213 538.371 12.5208L538.192 13.5046C539.208 13.6895 539.977 13.9833 540.526 14.3632L541.095 13.5411ZM538.373 12.5211C537.296 12.3208 535.962 12.2236 534.379 12.2236V13.2236C535.927 13.2236 537.195 13.3192 538.19 13.5043L538.373 12.5211ZM534.379 12.2236H516.023V13.2236H534.379V12.2236ZM515.523 12.7236V23.3467H516.523V12.7236H515.523ZM516.023 23.8467H534.379V22.8467H516.023V23.8467ZM534.379 23.8467C535.962 23.8467 537.296 23.7495 538.373 23.5492L538.19 22.5661C537.195 22.7512 535.927 22.8467 534.379 22.8467V23.8467ZM538.371 23.5496C539.47 23.3497 540.383 23.0312 541.084 22.5728L540.537 21.7358C539.985 22.0964 539.212 22.3801 538.192 22.5657L538.371 23.5496ZM541.095 22.5654C541.801 22.0763 542.304 21.4397 542.582 20.6604L541.64 20.324C541.437 20.8936 541.072 21.3651 540.526 21.7432L541.095 22.5654ZM542.577 20.675C542.871 19.9266 543.009 19.0418 543.009 18.0352H542.009C542.009 18.9556 541.882 19.7088 541.646 20.3094L542.577 20.675ZM569.501 52H569.001V52.5H569.501V52ZM569.501 2.35352V1.85352H569.001V2.35352H569.501ZM619.762 2.35352H620.262V1.85352H619.762V2.35352ZM619.762 12.9404V13.4404H620.262V12.9404H619.762ZM583.268 12.9404V12.4404H582.768V12.9404H583.268ZM583.268 21.1426H582.768V21.6426H583.268V21.1426ZM617.883 21.1426H618.383V20.6426H617.883V21.1426ZM617.883 31.7295V32.2295H618.383V31.7295H617.883ZM583.268 31.7295V31.2295H582.768V31.7295H583.268ZM583.268 41.4131H582.768V41.9131H583.268V41.4131ZM620.268 41.4131H620.768V40.9131H620.268V41.4131ZM620.268 52V52.5H620.768V52H620.268ZM570.001 52V2.35352H569.001V52H570.001ZM569.501 2.85352H619.762V1.85352H569.501V2.85352ZM619.262 2.35352V12.9404H620.262V2.35352H619.262ZM619.762 12.4404H583.268V13.4404H619.762V12.4404ZM582.768 12.9404V21.1426H583.768V12.9404H582.768ZM583.268 21.6426H617.883V20.6426H583.268V21.6426ZM617.383 21.1426V31.7295H618.383V21.1426H617.383ZM617.883 31.2295H583.268V32.2295H617.883V31.2295ZM582.768 31.7295V41.4131H583.768V31.7295H582.768ZM583.268 41.9131H620.268V40.9131H583.268V41.9131ZM619.768 41.4131V52H620.768V41.4131H619.768ZM620.268 51.5H569.501V52.5H620.268V51.5Z" fill="white"/>
</svg>
