<svg width="20" height="20" viewBox="0 0 20 20" fill="none" xmlns="http://www.w3.org/2000/svg">
<path d="M4.54 3C4.6 3.89 4.75 4.76 4.99 5.59L3.79 6.79C3.38 5.59 3.12 4.32 3.03 3H4.54V3ZM14.4 15.02C15.25 15.26 16.12 15.41 17 15.47V16.96C15.68 16.87 14.41 16.61 13.2 16.21L14.4 15.02V15.02ZM5.5 1H2C1.45 1 1 1.45 1 2C1 11.39 8.61 19 18 19C18.55 19 19 18.55 19 18V14.51C19 13.96 18.55 13.51 18 13.51C16.76 13.51 15.55 13.31 14.43 12.94C14.33 12.9 14.22 12.89 14.12 12.89C13.86 12.89 13.61 12.99 13.41 13.18L11.21 15.38C8.38 13.93 6.06 11.62 4.62 8.79L6.82 6.59C7.1 6.31 7.18 5.92 7.07 5.57C6.7 4.45 6.5 3.25 6.5 2C6.5 1.45 6.05 1 5.5 1Z" fill="white" stroke="#FD8636"/>
</svg>
